<svg width="147" height="42" viewBox="0 0 147 42" fill="none" xmlns="http://www.w3.org/2000/svg">
<g clip-path="url(#clip0_5589_7891)">
<path d="M0 0C24.4067 0 24.4067 0 28.1504 2.71765C28.2383 2.78102 28.3263 2.8444 28.4169 2.9097C29.0624 3.38292 29.6569 3.90017 30.2387 4.44706C30.3038 4.50693 30.369 4.56681 30.4361 4.62849C33.153 7.19761 34.7953 11.0574 34.9323 14.7436C34.9385 15.078 34.9401 15.4121 34.9394 15.7466C34.9398 15.8731 34.9402 15.9996 34.9407 16.1262C34.9418 16.4653 34.9419 16.8044 34.9417 17.1436C34.9416 17.4288 34.942 17.714 34.9424 17.9993C34.9433 18.6733 34.9433 19.3473 34.9428 20.0213C34.9423 20.7119 34.9434 21.4025 34.9451 22.0931C34.9466 22.6905 34.9471 23.2878 34.9468 23.8851C34.9467 24.2399 34.9469 24.5947 34.9481 24.9496C34.9534 26.7085 34.9112 28.3946 34.4362 30.1051C34.4147 30.1838 34.3931 30.2625 34.371 30.3436C33.6187 33.0242 32.2845 35.2573 30.3517 37.2699C30.2586 37.3673 30.167 37.4661 30.0758 37.5652C27.3516 40.426 23.2904 41.657 19.463 42C17.2026 42 14.9422 42 12.6134 42C12.6134 32.5969 12.6134 23.1939 12.6134 13.5059C13.1027 13.6667 13.5617 13.8278 14.0272 14.037C14.0884 14.0641 14.1497 14.0913 14.2128 14.1193C14.4124 14.2079 14.6119 14.2969 14.8113 14.386C15.0238 14.4805 15.2363 14.5748 15.4489 14.669C15.5946 14.7337 15.7403 14.7984 15.886 14.8632C16.3741 15.08 16.8628 15.2954 17.3522 15.5094C17.4177 15.538 17.4832 15.5667 17.5507 15.5962C17.8017 15.7059 18.0528 15.8156 18.3038 15.9252C19.3338 16.3748 20.3587 16.8345 21.3843 17.2941C21.4256 24.9986 21.4256 24.9986 21.4678 32.8588C22.1932 32.4738 22.8363 32.1214 23.4726 31.6235C23.542 31.5697 23.6115 31.5159 23.683 31.4604C25.1361 30.258 26.1321 28.381 26.3127 26.5176C26.3256 26.1651 26.3258 25.8128 26.3261 25.4601C26.3265 25.3545 26.3269 25.2489 26.3274 25.1401C26.3285 24.8515 26.329 24.5629 26.3294 24.2742C26.3296 24.0933 26.33 23.9123 26.3303 23.7314C26.3315 23.1633 26.3323 22.5953 26.3326 22.0273C26.333 21.3751 26.3344 20.7229 26.3369 20.0707C26.3387 19.5644 26.3395 19.0581 26.3396 18.5517C26.3397 18.2504 26.3402 17.9491 26.3417 17.6477C26.3542 15.0045 25.9852 12.9426 24.0886 10.9529C21.9864 8.94923 19.3364 8.52807 16.5339 8.52303C16.2425 8.52224 15.9511 8.52009 15.6597 8.51808C15.1101 8.51451 14.5604 8.51215 14.0108 8.51023C13.3842 8.50799 12.7575 8.50438 12.1308 8.50066C10.8438 8.49305 9.55675 8.48713 8.26969 8.48235C8.27034 8.60938 8.27034 8.60938 8.271 8.73896C8.28512 11.5221 8.29854 14.3051 8.31146 17.0882C8.31195 17.1951 8.31245 17.302 8.31296 17.4121C8.34164 23.5887 8.36132 29.7652 8.35844 35.9419C8.35839 36.0597 8.35839 36.0597 8.35834 36.1798C8.35809 36.7233 8.35779 37.2668 8.35746 37.8103C8.35742 37.8781 8.35738 37.9459 8.35734 38.0157C8.3565 39.3438 8.35478 40.6719 8.35322 42C5.59666 42 2.8401 42 0 42C0 28.14 0 14.28 0 0Z" fill="#15263F"/>
<path d="M0 0C0.192959 0.0271765 0.385919 0.0543529 0.584725 0.082353C0.612291 0.163882 0.639857 0.245412 0.668258 0.329412C0.53043 0.302235 0.392601 0.275059 0.250597 0.247059C0.250597 0.192706 0.250597 0.138353 0.250597 0.082353C0.1679 0.0551765 0.0852029 0.028 0 0Z" fill="#212C41"/>
</g>
<path d="M52.7045 30H46.517V12.5455H52.7557C54.5114 12.5455 56.0227 12.8949 57.2898 13.5938C58.5568 14.2869 59.5313 15.2841 60.2131 16.5852C60.9006 17.8864 61.2443 19.4432 61.2443 21.2557C61.2443 23.0739 60.9006 24.6364 60.2131 25.9432C59.5313 27.25 58.5511 28.2528 57.2727 28.9517C56 29.6506 54.4773 30 52.7045 30ZM50.2074 26.8381H52.5511C53.642 26.8381 54.5597 26.6449 55.304 26.2585C56.054 25.8665 56.6165 25.2614 56.9915 24.4432C57.3722 23.6193 57.5625 22.5568 57.5625 21.2557C57.5625 19.9659 57.3722 18.9119 56.9915 18.0938C56.6165 17.2756 56.0568 16.6733 55.3125 16.2869C54.5682 15.9006 53.6506 15.7074 52.5597 15.7074H50.2074V26.8381ZM69.8757 30.2557C68.5291 30.2557 67.37 29.983 66.3984 29.4375C65.4325 28.8864 64.6882 28.108 64.1655 27.1023C63.6428 26.0909 63.3814 24.8949 63.3814 23.5142C63.3814 22.1676 63.6428 20.9858 64.1655 19.9688C64.6882 18.9517 65.424 18.1591 66.3729 17.5909C67.3274 17.0227 68.4467 16.7386 69.7308 16.7386C70.5945 16.7386 71.3984 16.8778 72.1428 17.1562C72.8928 17.429 73.5462 17.8409 74.103 18.392C74.6655 18.9432 75.103 19.6364 75.4155 20.4716C75.728 21.3011 75.8842 22.2727 75.8842 23.3864V24.3835H64.8303V22.1335H72.4666C72.4666 21.6108 72.353 21.1477 72.1257 20.7443C71.8984 20.3409 71.5831 20.0256 71.1797 19.7983C70.782 19.5653 70.3189 19.4489 69.7905 19.4489C69.2393 19.4489 68.7507 19.5767 68.3246 19.8324C67.9041 20.0824 67.5746 20.4205 67.3359 20.8466C67.0973 21.267 66.9751 21.7358 66.9695 22.2528V24.392C66.9695 25.0398 67.0888 25.5994 67.3274 26.071C67.5717 26.5426 67.9155 26.9062 68.3587 27.1619C68.8018 27.4176 69.3274 27.5455 69.9354 27.5455C70.3388 27.5455 70.7081 27.4886 71.0433 27.375C71.3786 27.2614 71.6655 27.0909 71.9041 26.8636C72.1428 26.6364 72.3246 26.358 72.4496 26.0284L75.8075 26.25C75.6371 27.0568 75.2876 27.7614 74.7592 28.3636C74.2365 28.9602 73.5604 29.4261 72.7308 29.7614C71.907 30.0909 70.9553 30.2557 69.8757 30.2557ZM90.1065 16.9091L85.5298 30H81.4389L76.8622 16.9091H80.6974L83.4162 26.2756H83.5526L86.2628 16.9091H90.1065ZM103.607 18.1875C103.487 17.7727 103.32 17.4062 103.104 17.0881C102.888 16.7642 102.624 16.4915 102.311 16.2699C102.004 16.0426 101.652 15.8693 101.254 15.75C100.862 15.6307 100.428 15.571 99.9503 15.571C99.0582 15.571 98.2741 15.7926 97.598 16.2358C96.9276 16.679 96.4048 17.3239 96.0298 18.1705C95.6548 19.0114 95.4673 20.0398 95.4673 21.2557C95.4673 22.4716 95.652 23.5057 96.0213 24.358C96.3906 25.2102 96.9134 25.8608 97.5895 26.3097C98.2656 26.7528 99.0639 26.9744 99.9844 26.9744C100.82 26.9744 101.533 26.8267 102.124 26.5312C102.72 26.2301 103.175 25.8068 103.487 25.2614C103.805 24.7159 103.964 24.071 103.964 23.3267L104.714 23.4375H100.214V20.6591H107.518V22.858C107.518 24.392 107.195 25.7102 106.547 26.8125C105.899 27.9091 105.007 28.7557 103.871 29.3523C102.734 29.9432 101.433 30.2386 99.9673 30.2386C98.331 30.2386 96.8935 29.8778 95.6548 29.1562C94.4162 28.429 93.4503 27.3977 92.7571 26.0625C92.0696 24.7216 91.7259 23.1307 91.7259 21.2898C91.7259 19.875 91.9304 18.6136 92.3395 17.5057C92.7543 16.392 93.3338 15.4489 94.0781 14.6761C94.8224 13.9034 95.6889 13.3153 96.6776 12.9119C97.6662 12.5085 98.7372 12.3068 99.8906 12.3068C100.879 12.3068 101.8 12.4517 102.652 12.7415C103.504 13.0256 104.26 13.429 104.919 13.9517C105.584 14.4744 106.126 15.0966 106.547 15.8182C106.967 16.5341 107.237 17.3239 107.357 18.1875H103.607ZM113.955 30.2472C113.12 30.2472 112.376 30.1023 111.722 29.8125C111.069 29.517 110.552 29.0824 110.171 28.5085C109.796 27.929 109.609 27.2074 109.609 26.3438C109.609 25.6165 109.742 25.0057 110.009 24.5114C110.276 24.017 110.64 23.6193 111.1 23.3182C111.56 23.017 112.083 22.7898 112.668 22.6364C113.259 22.483 113.879 22.375 114.526 22.3125C115.288 22.233 115.901 22.1591 116.367 22.0909C116.833 22.017 117.171 21.9091 117.381 21.767C117.592 21.625 117.697 21.4148 117.697 21.1364V21.0852C117.697 20.5455 117.526 20.1278 117.185 19.8324C116.85 19.5369 116.373 19.3892 115.754 19.3892C115.1 19.3892 114.58 19.5341 114.194 19.8239C113.808 20.108 113.552 20.4659 113.427 20.8977L110.069 20.625C110.239 19.8295 110.575 19.142 111.075 18.5625C111.575 17.9773 112.219 17.5284 113.009 17.2159C113.805 16.8977 114.725 16.7386 115.771 16.7386C116.498 16.7386 117.194 16.8239 117.859 16.9943C118.529 17.1648 119.123 17.429 119.64 17.7869C120.163 18.1449 120.575 18.6051 120.876 19.1676C121.177 19.7244 121.327 20.392 121.327 21.1705V30H117.884V28.1847H117.782C117.572 28.5938 117.29 28.9545 116.938 29.267C116.586 29.5739 116.163 29.8153 115.668 29.9915C115.174 30.1619 114.603 30.2472 113.955 30.2472ZM114.995 27.7415C115.529 27.7415 116.001 27.6364 116.41 27.4261C116.819 27.2102 117.14 26.9205 117.373 26.5568C117.606 26.1932 117.722 25.7812 117.722 25.321V23.9318C117.609 24.0057 117.452 24.0739 117.254 24.1364C117.06 24.1932 116.842 24.2472 116.597 24.2983C116.353 24.3437 116.109 24.3864 115.864 24.4261C115.62 24.4602 115.398 24.4915 115.2 24.5199C114.773 24.5824 114.401 24.6818 114.083 24.8182C113.765 24.9545 113.518 25.1392 113.342 25.3722C113.165 25.5994 113.077 25.8835 113.077 26.2244C113.077 26.7188 113.256 27.0966 113.614 27.358C113.978 27.6136 114.438 27.7415 114.995 27.7415ZM131.107 16.9091V19.6364H123.224V16.9091H131.107ZM125.013 13.7727H128.644V25.9773C128.644 26.3125 128.695 26.5739 128.798 26.7614C128.9 26.9432 129.042 27.071 129.224 27.1449C129.411 27.2187 129.627 27.2557 129.871 27.2557C130.042 27.2557 130.212 27.2415 130.383 27.2131C130.553 27.179 130.684 27.1534 130.775 27.1364L131.346 29.8381C131.164 29.8949 130.908 29.9602 130.579 30.0341C130.249 30.1136 129.849 30.1619 129.377 30.179C128.502 30.2131 127.735 30.0966 127.076 29.8295C126.423 29.5625 125.914 29.1477 125.55 28.5852C125.187 28.0227 125.008 27.3125 125.013 26.4545V13.7727ZM139.298 30.2557C137.951 30.2557 136.792 29.983 135.82 29.4375C134.854 28.8864 134.11 28.108 133.587 27.1023C133.065 26.0909 132.803 24.8949 132.803 23.5142C132.803 22.1676 133.065 20.9858 133.587 19.9688C134.11 18.9517 134.846 18.1591 135.795 17.5909C136.749 17.0227 137.869 16.7386 139.153 16.7386C140.016 16.7386 140.82 16.8778 141.565 17.1562C142.315 17.429 142.968 17.8409 143.525 18.392C144.087 18.9432 144.525 19.6364 144.837 20.4716C145.15 21.3011 145.306 22.2727 145.306 23.3864V24.3835H134.252V22.1335H141.888C141.888 21.6108 141.775 21.1477 141.548 20.7443C141.32 20.3409 141.005 20.0256 140.602 19.7983C140.204 19.5653 139.741 19.4489 139.212 19.4489C138.661 19.4489 138.173 19.5767 137.746 19.8324C137.326 20.0824 136.996 20.4205 136.758 20.8466C136.519 21.267 136.397 21.7358 136.391 22.2528V24.392C136.391 25.0398 136.511 25.5994 136.749 26.071C136.994 26.5426 137.337 26.9062 137.781 27.1619C138.224 27.4176 138.749 27.5455 139.357 27.5455C139.761 27.5455 140.13 27.4886 140.465 27.375C140.8 27.2614 141.087 27.0909 141.326 26.8636C141.565 26.6364 141.746 26.358 141.871 26.0284L145.229 26.25C145.059 27.0568 144.71 27.7614 144.181 28.3636C143.658 28.9602 142.982 29.4261 142.153 29.7614C141.329 30.0909 140.377 30.2557 139.298 30.2557Z" fill="#1F2A3B"/>
<defs>
<clipPath id="clip0_5589_7891">
<rect width="35" height="42" fill="white"/>
</clipPath>
</defs>
</svg>
