<?xml version="1.0" encoding="UTF-8"?>
<svg version="1.1" xmlns="http://www.w3.org/2000/svg" viewBox="0 0 419 510">
<path d="M0 0 C292.18285714 0 292.18285714 0 337 33 C338.05316406 33.76957031 339.10632813 34.53914063 340.19140625 35.33203125 C347.91834665 41.07834996 355.03508377 47.35926181 362 54 C362.77988281 54.72703125 363.55976562 55.4540625 364.36328125 56.203125 C396.88842848 87.3995362 416.54959444 134.26837468 418.18924904 179.02932167 C418.26332803 183.09026211 418.28246153 187.14686864 418.2746582 191.20825195 C418.2790222 192.74479414 418.28421085 194.28133417 418.29014587 195.81787109 C418.30336596 199.93586973 418.30413382 204.05377565 418.30158257 208.17179132 C418.30050117 211.635314 418.3054257 215.09881879 418.310188 218.56233758 C418.32122447 226.74689469 418.32175386 234.93140588 418.31567383 243.1159668 C418.30963908 251.50192276 418.32194596 259.88771074 418.3432439 268.27363807 C418.36097386 275.52689806 418.36684346 282.78010513 418.36360615 290.03338593 C418.36181118 294.34192278 418.3642475 298.65033978 418.37832069 302.95885658 C418.4421865 324.31726753 417.93701928 344.79158125 412.25 365.5625 C411.99250977 366.51809814 411.73501953 367.47369629 411.46972656 368.45825195 C402.46384032 401.00863853 386.49104482 428.12455658 363.35302734 452.56347656 C362.23907831 453.74616803 361.14247261 454.94517047 360.05078125 456.1484375 C327.43799 490.88655672 278.81987179 505.83455711 233 510 C205.94 510 178.88 510 151 510 C151 395.82 151 281.64 151 164 C156.85753448 165.95251149 162.35246528 167.90908562 167.92578125 170.44921875 C168.65878952 170.77887634 169.39179779 171.10853394 170.14701843 171.44818115 C172.53728836 172.52406195 174.9248542 173.60580986 177.3125 174.6875 C179.85629661 175.83408676 182.40078374 176.97913204 184.94528198 178.12416077 C186.68991687 178.90940688 188.43432013 179.69516782 190.17849731 180.48143005 C196.02143124 183.1145321 201.8722291 185.72926167 207.73046875 188.328125 C208.51488846 188.67611649 209.29930817 189.02410797 210.10749817 189.38264465 C213.11226847 190.71505631 216.11734736 192.04676776 219.12295532 193.37728882 C231.45355519 198.83705059 243.72220299 204.41918318 256 210 C256.495 303.555 256.495 303.555 257 399 C265.68377941 394.32411878 273.3834269 390.04544143 281 384 C281.83144531 383.34644531 282.66289063 382.69289063 283.51953125 382.01953125 C300.91532295 367.4180242 312.83875923 344.62689226 315 322 C315.15508898 317.71967165 315.1571521 313.44126222 315.16113281 309.15844727 C315.16609772 307.87614731 315.17106262 306.59384735 315.17617798 305.27268982 C315.18923626 301.76801005 315.19573481 298.26334938 315.20018864 294.75864911 C315.20313189 292.56125911 315.20723913 290.36387417 315.21169281 288.16648674 C315.22535459 281.26909301 315.23502594 274.37171105 315.2388947 267.47430474 C315.24336302 259.55461861 315.26085917 251.63510614 315.2898953 243.71547276 C315.31164096 237.56735823 315.3216059 231.41929207 315.32293582 225.27113956 C315.3239753 221.61201744 315.32969668 217.95305881 315.34775543 214.29397774 C315.49721049 182.19698859 311.07948216 157.15989768 288.375 133 C263.20867555 108.66927617 231.4846825 103.55517776 197.93463135 103.49388909 C194.44593766 103.48439028 190.95736636 103.45817957 187.46875 103.43388367 C180.8890209 103.39052683 174.30931597 103.36179208 167.72948837 103.33856028 C160.22737457 103.31134145 152.7253858 103.26744166 145.22336197 103.22227156 C129.81563932 103.12986772 114.40789301 103.05798651 99 103 C99.0077306 104.54241489 99.0077306 104.54241489 99.01561737 106.11598969 C99.18471837 139.91062407 99.34533394 173.70529653 99.5 207.5 C99.50594854 208.79767508 99.51189708 210.09535016 99.51802588 211.43234873 C99.86131364 286.43418783 100.09691083 361.43476373 100.0625 436.4375 C100.06186365 437.86756441 100.06186365 437.86756441 100.06121445 439.32651901 C100.05822579 445.92601298 100.05473161 452.52550654 100.05078125 459.125 C100.0502903 459.94817656 100.04979935 460.77135311 100.04929352 461.61947441 C100.03926471 477.74632549 100.01866293 493.87315369 100 510 C67 510 34 510 0 510 C0 341.7 0 173.4 0 0 Z " fill="#fff"/>
<path d="M0 0 C2.31 0.33 4.62 0.66 7 1 C7.33 1.99 7.66 2.98 8 4 C6.35 3.67 4.7 3.34 3 3 C3 2.34 3 1.68 3 1 C2.01 0.67 1.02 0.34 0 0 Z " fill="#212C41"/>
</svg>
