<svg width="20" height="20" viewBox="0 0 20 20" fill="none" xmlns="http://www.w3.org/2000/svg">
<path d="M3.4375 4.375V15.625C3.4375 15.7079 3.40458 15.7874 3.34597 15.846C3.28737 15.9046 3.20788 15.9375 3.125 15.9375C3.04212 15.9375 2.96263 15.9046 2.90403 15.846C2.84542 15.7874 2.8125 15.7079 2.8125 15.625V4.375C2.8125 4.29212 2.84542 4.21263 2.90403 4.15403C2.96263 4.09542 3.04212 4.0625 3.125 4.0625C3.20788 4.0625 3.28737 4.09542 3.34597 4.15403C3.40458 4.21263 3.4375 4.29212 3.4375 4.375ZM10.4062 8.93047L8.4375 9.56953V7.5C8.4375 7.41712 8.40458 7.33763 8.34597 7.27903C8.28737 7.22042 8.20788 7.1875 8.125 7.1875C8.04212 7.1875 7.96263 7.22042 7.90403 7.27903C7.84542 7.33763 7.8125 7.41712 7.8125 7.5V9.56953L5.84375 8.93047C5.76491 8.90488 5.67913 8.91166 5.60529 8.94931C5.53145 8.98697 5.47559 9.05241 5.45 9.13125C5.42441 9.21009 5.43119 9.29587 5.46884 9.36971C5.5065 9.44355 5.57194 9.49941 5.65078 9.525L7.61953 10.1641L6.40625 11.8391C6.38078 11.8722 6.3622 11.91 6.35161 11.9504C6.34102 11.9908 6.33864 12.0329 6.3446 12.0743C6.35057 12.1156 6.36476 12.1554 6.38633 12.1911C6.40791 12.2269 6.43644 12.2579 6.47023 12.2825C6.50402 12.307 6.54239 12.3246 6.58307 12.334C6.62375 12.3435 6.66592 12.3447 6.70708 12.3376C6.74823 12.3305 6.78755 12.3152 6.8227 12.2926C6.85785 12.2701 6.88812 12.2407 6.91172 12.2063L8.125 10.532L9.34141 12.2063C9.37041 12.2462 9.40848 12.2787 9.45248 12.3011C9.49647 12.3235 9.54516 12.3352 9.59453 12.3352C9.65211 12.3351 9.70854 12.3191 9.75759 12.2889C9.80665 12.2588 9.84643 12.2157 9.87253 12.1643C9.89863 12.113 9.91005 12.0555 9.90553 11.9981C9.901 11.9407 9.8807 11.8857 9.84688 11.8391L8.63047 10.1641L10.5992 9.525C10.6383 9.51233 10.6744 9.49209 10.7056 9.46545C10.7369 9.4388 10.7625 9.40627 10.7812 9.36971C10.7998 9.33315 10.8111 9.29327 10.8143 9.25235C10.8175 9.21144 10.8127 9.17029 10.8 9.13125C10.7873 9.09221 10.7671 9.05605 10.7404 9.02484C10.7138 8.99362 10.6813 8.96796 10.6447 8.94931C10.6081 8.93067 10.5683 8.91941 10.5274 8.91617C10.4864 8.91294 10.4453 8.9178 10.4062 8.93047ZM18.2969 9.13125C18.2713 9.05313 18.2159 8.98825 18.1428 8.95066C18.0697 8.91308 17.9847 8.90582 17.9062 8.93047L15.9375 9.56953V7.5C15.9375 7.41712 15.9046 7.33763 15.846 7.27903C15.7874 7.22042 15.7079 7.1875 15.625 7.1875C15.5421 7.1875 15.4626 7.22042 15.404 7.27903C15.3454 7.33763 15.3125 7.41712 15.3125 7.5V9.56953L13.3438 8.93047C13.2649 8.90488 13.1791 8.91166 13.1053 8.94931C13.0314 8.98697 12.9756 9.05241 12.95 9.13125C12.9244 9.21009 12.9312 9.29587 12.9688 9.36971C13.0065 9.44355 13.0719 9.49941 13.1508 9.525L15.1195 10.1641L13.9062 11.8391C13.8808 11.8722 13.8622 11.91 13.8516 11.9504C13.841 11.9908 13.8386 12.0329 13.8446 12.0743C13.8506 12.1156 13.8648 12.1554 13.8863 12.1911C13.9079 12.2269 13.9364 12.2579 13.9702 12.2825C14.004 12.307 14.0424 12.3246 14.0831 12.334C14.1238 12.3435 14.1659 12.3447 14.2071 12.3376C14.2482 12.3305 14.2875 12.3152 14.3227 12.2926C14.3578 12.2701 14.3881 12.2407 14.4117 12.2063L15.625 10.532L16.8414 12.2063C16.8704 12.2462 16.9085 12.2787 16.9525 12.3011C16.9965 12.3235 17.0452 12.3352 17.0945 12.3352C17.1521 12.3351 17.2085 12.3191 17.2576 12.2889C17.3067 12.2588 17.3464 12.2157 17.3725 12.1643C17.3986 12.113 17.4101 12.0555 17.4055 11.9981C17.401 11.9407 17.3807 11.8857 17.3469 11.8391L16.1305 10.1641L18.0992 9.525C18.1383 9.51233 18.1744 9.4921 18.2056 9.46546C18.2369 9.43881 18.2625 9.40628 18.2812 9.36971C18.2998 9.33315 18.3111 9.29327 18.3143 9.25236C18.3175 9.21144 18.3127 9.17029 18.3 9.13125H18.2969Z" fill="black" fill-opacity="0.4"/>
</svg>
